<?xml version="1.0" encoding="utf-8"?>
<!-- Generator: Adobe Illustrator 19.0.0, SVG Export Plug-In . SVG Version: 6.00 Build 0)  -->
<svg version="1.1" id="Layer_1" xmlns="http://www.w3.org/2000/svg" xmlns:xlink="http://www.w3.org/1999/xlink" x="0px" y="0px"
	 viewBox="0 0 841.9 595.3" style="enable-background:new 0 0 841.9 595.3;" xml:space="preserve">
<style type="text/css">
	.st0{fill:#FFFFFF;}
	.st1{fill:#3E4247;}
	.st2{fill:#F2F5F9;stroke:#3E4247;stroke-width:8;stroke-miterlimit:10;}
	.st3{fill:#3E4247;stroke:#3E4247;stroke-width:3.6819;stroke-miterlimit:10;}
	.st4{fill:#F2F5F9;stroke:#3E4247;stroke-width:8.2223;stroke-miterlimit:10;}
	.st5{opacity:0.13;fill:#5D5E5E;}
</style>
<ellipse id="XMLID_11_" class="st0" cx="144.3" cy="589.5" rx="0" ry="1.3"/>
<g id="XMLID_1_">
	<circle id="XMLID_3_" class="st1" cx="623.3" cy="130.8" r="90"/>
	<circle id="XMLID_4_" class="st1" cx="196" cy="130.8" r="90"/>
	<path id="XMLID_2_" class="st2" d="M706,327.4c0,165.7-600,165.7-600,0s134.3-300,300-300S706,161.7,706,327.4z"/>
	<ellipse id="XMLID_5_" cx="301.3" cy="185.4" rx="0.7" ry="2"/>
	<circle id="XMLID_6_" class="st1" cx="286" cy="283.4" r="100"/>
	<circle id="XMLID_7_" class="st1" cx="533.3" cy="283.4" r="100"/>
	<path id="XMLID_12_" class="st3" d="M466.7,380.8c0,27.6-24.8,50-55.3,50s-55.3-22.4-55.3-50C356,353.1,466.7,353.1,466.7,380.8z"
		/>
	<path id="XMLID_16_" class="st4" d="M114.5,381.4c-5.5,22.8-8.5,46.6-8.5,71.2c0,165.7,600,165.7,600,0c0-24.5-3-48.3-8.5-71.2
		C630.1,503.7,181.9,503.7,114.5,381.4z"/>
	<path id="XMLID_32_" class="st5" d="M411.3,27.4c1.1,183.2,2.2,366.5,3.3,549.7c75.6-12.9,151.1-25.8,226.7-38.7
		c13.4-5.9,32.8-16.9,46.7-37.3c18.4-27.1,16.7-55.7,14.7-108c-4.9-125.2-0.9-112.4-4-128C681,177,615.7,115,570,80.8
		c-18.3-11.7-43.3-25.3-74.7-36C462.7,33.6,433.5,29.2,411.3,27.4z"/>
</g>
</svg>
