<?xml version="1.0" encoding="utf-8"?>
<!-- Generator: Adobe Illustrator 19.0.0, SVG Export Plug-In . SVG Version: 6.00 Build 0)  -->
<svg version="1.1" id="Layer_1" xmlns="http://www.w3.org/2000/svg" xmlns:xlink="http://www.w3.org/1999/xlink" x="0px" y="0px"
	 viewBox="0 0 1280 300" style="enable-background:new 0 0 1280 300;" xml:space="preserve">
<style type="text/css">
	.st0{fill:#3D4247;}
	.st1{fill:#F1F5F9;stroke:#3D4247;stroke-width:4;stroke-miterlimit:10;}
	.st2{fill:#231F20;}
	.st3{fill:#3D4247;stroke:#3D4247;stroke-width:1.841;stroke-miterlimit:10;}
	.st4{fill:#F1F5F9;stroke:#3D4247;stroke-width:4.1111;stroke-miterlimit:10;}
	.st5{opacity:0.13;fill:#5E5E5E;}
	.st6{font-family: 'Roboto Condensed', sans-serif,bold;}
	.st7{font-size:200px;}
	.st8{fill:#FFFFFF;}
</style>
<rect id="XMLID_9_" x="872.8" y="14.9" class="st0" width="312.7" height="251.3"/>
<g id="XMLID_1_">
	<circle id="XMLID_3_" class="st0" cx="346.5" cy="64.2" r="45"/>
	<circle id="XMLID_4_" class="st0" cx="132.9" cy="64.2" r="45"/>
	<path id="XMLID_2_" class="st1" d="M387.9,162.6c0,82.8-300,82.8-300,0s67.2-150,150-150S387.9,79.7,387.9,162.6z"/>
	<ellipse id="XMLID_5_" class="st2" cx="185.5" cy="91.6" rx="0.3" ry="1"/>
	<circle id="XMLID_6_" class="st0" cx="177.9" cy="140.6" r="50"/>
	<circle id="XMLID_7_" class="st0" cx="301.5" cy="140.6" r="50"/>
	<path id="XMLID_12_" class="st3" d="M268.2,189.2c0,13.8-12.4,25-27.7,25s-27.7-11.2-27.7-25S268.2,175.4,268.2,189.2z"/>
	<path id="XMLID_16_" class="st4" d="M92.1,189.6c-2.8,11.4-4.3,23.3-4.3,35.6c0,82.8,300,82.8,300,0c0-12.3-1.5-24.2-4.3-35.6
		C349.9,250.7,125.9,250.7,92.1,189.6z"/>
	<path id="XMLID_32_" class="st5" d="M240.5,12.6c0.6,91.6,1.1,183.2,1.7,274.8c37.8-6.4,75.6-12.9,113.3-19.3
		c6.7-3,16.4-8.4,23.3-18.7c9.2-13.6,8.4-27.9,7.3-54c-2.5-62.6-0.4-56.2-2-64c-8.8-44.1-41.5-75.1-64.3-92.2
		c-9.1-5.9-21.6-12.7-37.3-18C266.2,15.7,251.6,13.4,240.5,12.6z"/>
</g>
<text id="XMLID_8_" transform="matrix(1 0 0 1 408.8343 212.0195)"><tspan x="0" y="0" class="st0 st6 st7">READ </tspan><tspan x="487.4" y="0" class="st8 st6 st7">ON</tspan><tspan x="730.6" y="0" class="st0 st6 st7"> </tspan></text>
</svg>
